<svg aria-hidden="true" style="position: absolute; width: 0; height: 0; overflow: hidden;" version="1.1" xmlns="http://www.w3.org/2000/svg" xmlns:xlink="http://www.w3.org/1999/xlink">
<defs>
<symbol id="icon-Flag_of_Ukraine" viewBox="0 0 46 32">
<path fill="#005bbb" style="fill: var(--color1, #005bbb)" opacity="0.8" d="M45.714 0h-45.714v30.476h45.714v-30.476z"></path>
<path fill="#ffd500" style="fill: var(--color2, #ffd500)" opacity="0.8" d="M45.714 15.238h-45.714v15.238h45.714v-15.238z"></path>
</symbol>
<symbol id="icon-Group_strelka" viewBox="0 0 32 32">
<path fill="none" stroke="#fff" style="stroke: var(--color3, #fff)" stroke-linejoin="miter" stroke-linecap="butt" stroke-miterlimit="4" stroke-width="1.28" d="M31.36 16c0 8.483-6.877 15.36-15.36 15.36s-15.36-6.877-15.36-15.36c0-8.483 6.877-15.36 15.36-15.36s15.36 6.877 15.36 15.36z"></path>
<path fill="none" stroke="#fff" style="stroke: var(--color3, #fff)" stroke-linejoin="miter" stroke-linecap="butt" stroke-miterlimit="4" stroke-width="1.28" d="M12.8 9.6l6.4 6.080-6.4 6.080"></path>
</symbol>
<symbol id="icon-GroupstrelkaLeft" viewBox="0 0 32 32">
<path fill="none" stroke="#fff" style="stroke: var(--color3, #fff)" stroke-linejoin="miter" stroke-linecap="butt" stroke-miterlimit="4" stroke-width="1.28" d="M0.64 16c0-8.483 6.877-15.36 15.36-15.36s15.36 6.877 15.36 15.36c0 8.483-6.877 15.36-15.36 15.36s-15.36-6.877-15.36-15.36z"></path>
<path fill="none" stroke="#fff" style="stroke: var(--color3, #fff)" stroke-linejoin="miter" stroke-linecap="butt" stroke-miterlimit="4" stroke-width="1.28" d="M19.2 22.4l-6.4-6.080 6.4-6.080"></path>
</symbol>
<symbol id="iconL" viewBox="0 0 32 32">
<path fill="none" stroke="#386457" style="stroke: var(--color4, #386457)" stroke-linejoin="miter" stroke-linecap="butt" stroke-miterlimit="4" stroke-width="0.96" d="M31.52 16c0 8.571-6.949 15.52-15.52 15.52s-15.52-6.949-15.52-15.52c0-8.571 6.949-15.52 15.52-15.52s15.52 6.949 15.52 15.52z"></path>
<path fill="#386457" style="fill: var(--color4, #386457)" d="M12.993 9.413l-1.659-0.246v-1.024h5.878v1.024l-2.028 0.246v12.739l5.284-0.184 1.208-3.441 1.249 0.184-0.717 4.649h-10.916v-1.004l1.7-0.205v-12.739z"></path>
</symbol>
<symbol id="icon_L" viewBox="0 0 32 32">
<path fill="none" d="M31.52 16c0 8.571-6.949 15.52-15.52 15.52s-15.52-6.949-15.52-15.52c0-8.571 6.949-15.52 15.52-15.52s15.52 6.949 15.52 15.52z"></path>
<path d="M12.993 9.413l-1.659-0.246v-1.024h5.878v1.024l-2.028 0.246v12.739l5.284-0.184 1.208-3.441 1.249 0.184-0.717 4.649h-10.916v-1.004l1.7-0.205v-12.739z"></path>
</symbol>
<symbol id="icon-Vectorleft" viewBox="0 0 20 32">
<path fill="none" stroke="#fff" style="stroke: var(--color1, #fff)" stroke-linejoin="miter" d="M18.286 30.476l-15.238-14.476 15.238-14.476"></path>
</symbol>
<symbol id="icon-Vectorright" viewBox="0 0 20 32">
<path fill="none" stroke="#fff" style="stroke: var(--color1, #fff)" stroke-linejoin="miter" stroke-linecap="butt" stroke-miterlimit="4" d="M1.524 1.524l15.238 14.476-15.238 14.476"></path>
</symbol>

</defs>
</svg>
